<svg viewBox="0 0 333 333" xmlns="http://www.w3.org/2000/svg" xmlSpace="preserve" style="fill-rule:evenodd;clip-rule:evenodd;stroke-linejoin:round;stroke-miterlimit:2;"><path d="M332.531,166.266c0,91.825 -74.44,166.262 -166.262,166.262c-91.825,0 -166.269,-74.437 -166.269,-166.262c0,-91.825 74.444,-166.266 166.269,-166.266c91.822,-0 166.262,74.441 166.262,166.266Z" style="fill:url(#_Linear1);"/><path d="M65.381,172.353c0.297,0.603 2.125,4.288 6.619,8c2.244,1.847 5.162,3.678 8.787,5.025c3.625,1.347 7.947,2.2 12.901,2.197c4.921,0.003 9.174,-0.85 12.715,-2.241c5.325,-2.078 8.931,-5.328 11.11,-8.078c2.196,-2.765 3.059,-5.025 3.246,-5.544c1.269,-3.55 -0.578,-7.456 -4.128,-8.724c-3.55,-1.269 -7.456,0.578 -8.725,4.128l3.406,1.218l-3.353,-1.362l-0.053,0.144l3.406,1.218l-3.353,-1.362l-0.025,0.056c-0.162,0.366 -1.062,2.116 -3.096,3.681c-2.06,1.554 -5.222,3.178 -11.15,3.213c-3.416,-0.003 -6.047,-0.566 -8.144,-1.344c-3.135,-1.165 -5.132,-2.844 -6.385,-4.2c-0.618,-0.672 -1.04,-1.262 -1.275,-1.625l-0.218,-0.362l-0.016,-0.025l-2.453,1.306l2.509,-1.194l-0.056,-0.112l-2.453,1.306l2.509,-1.194c-1.625,-3.403 -5.697,-4.847 -9.1,-3.225c-3.403,1.622 -4.847,5.697 -3.225,9.1Z" style="fill:#434247;fill-rule:nonzero;"/><path d="M207.925,172.353c0.297,0.606 2.125,4.288 6.619,8c2.244,1.847 5.162,3.678 8.79,5.025c3.622,1.347 7.944,2.2 12.897,2.197c4.925,0.003 9.175,-0.85 12.716,-2.241c5.325,-2.078 8.931,-5.328 11.112,-8.078c2.194,-2.765 3.057,-5.025 3.247,-5.544c1.269,-3.55 -0.581,-7.456 -4.131,-8.724c-3.55,-1.269 -7.456,0.578 -8.725,4.128l3.406,1.218l-3.353,-1.362l-0.053,0.144l3.406,1.218l-3.353,-1.362l-0.025,0.056c-0.162,0.366 -1.062,2.116 -3.097,3.681c-2.059,1.554 -5.222,3.178 -11.15,3.213c-3.415,-0.003 -6.047,-0.566 -8.143,-1.344c-3.135,-1.165 -5.132,-2.847 -6.385,-4.2c-0.622,-0.675 -1.041,-1.262 -1.278,-1.628l-0.219,-0.359l-0.015,-0.025l-2.454,1.306l2.51,-1.197l-0.056,-0.109l-2.454,1.306l2.51,-1.197c-1.625,-3.403 -5.7,-4.844 -9.1,-3.222c-3.403,1.625 -4.847,5.7 -3.222,9.1Z" style="fill:#434247;fill-rule:nonzero;"/><path d="M221.225,254.919c-0.284,-0.675 -3.353,-7.972 -11.9,-15.275c-4.269,-3.641 -9.906,-7.247 -17.113,-9.91c-7.203,-2.665 -15.95,-4.381 -26.375,-4.378c-10.425,-0.003 -19.131,1.713 -26.268,4.391c-10.722,4.006 -17.819,10.165 -22.144,15.372c-4.338,5.212 -5.984,9.456 -6.187,9.987c-1.322,3.532 0.471,7.463 4.003,8.785c3.531,1.322 7.462,-0.472 8.784,-4.003l-2.994,-1.119l2.969,1.184l0.025,-0.065l-2.994,-1.119l2.969,1.184c0.009,-0.041 2.163,-5.34 8.294,-10.484c3.072,-2.581 7.14,-5.16 12.587,-7.132c5.447,-1.965 12.294,-3.324 20.956,-3.328c8.941,0.004 16.013,1.45 21.641,3.532c8.428,3.125 13.71,7.687 16.956,11.418c1.616,1.866 2.707,3.519 3.366,4.647c0.331,0.563 0.553,0.997 0.678,1.257l0.119,0.253l0.009,0.018l3.657,-1.559l-3.682,1.5l0.025,0.059l3.657,-1.559l-3.682,1.5c1.425,3.491 5.41,5.166 8.9,3.744c3.491,-1.425 5.166,-5.41 3.744,-8.9Z" style="fill:#434247;fill-rule:nonzero;"/><path d="M260.141,193.847l13.662,37.8c2.888,7.994 -1.25,16.822 -9.244,19.709c-7.996,2.891 -16.821,-1.247 -19.712,-9.244c-1.269,-3.515 -1.175,-7.206 -0,-10.465l13.665,-37.8c0.163,-0.447 0.657,-0.681 1.11,-0.519l0.519,0.519Z" style="fill:#67a8dc;fill-rule:nonzero;"/><defs><linearGradient id="_Linear1" x1="0" y1="0" x2="1" y2="0" gradientUnits="userSpaceOnUse" gradientTransform="matrix(-288.026,166.292,-166.292,-288.026,310.281,83.1188)"><stop offset="0" style="stop-color:#f6bb5e;stop-opacity:1"/><stop offset="1" style="stop-color:#f9a360;stop-opacity:1"/></linearGradient></defs></svg>