<svg viewBox="0 0 333 333" version="1.1" xmlns="http://www.w3.org/2000/svg" xmlSpace="preserve" style="fill-rule:evenodd;clip-rule:evenodd;stroke-linejoin:round;stroke-miterlimit:2;"><ellipse cx="166.25" cy="166.528" rx="166.25" ry="166.472" style="fill:#fdbd23;"/><ellipse cx="168.025" cy="146.876" rx="165.502" ry="146.829" style="fill:#fdd823;"/><path d="M62.132,7.319c0.469,-2.677 2.35,-4.891 4.916,-5.787c2.566,-0.897 5.416,-0.335 7.45,1.468l26.503,23.49l35.065,-4.967c2.691,-0.382 5.378,0.722 7.023,2.886c1.646,2.163 1.992,5.047 0.906,7.539l-14.151,32.465l15.561,31.813c1.194,2.442 0.974,5.339 -0.575,7.572c-1.549,2.233 -4.185,3.454 -6.89,3.191l-35.249,-3.426l-25.448,24.63c-1.953,1.89 -4.776,2.576 -7.379,1.793c-2.603,-0.783 -4.578,-2.913 -5.164,-5.567l-7.634,-34.582l-31.288,-16.592c-2.402,-1.273 -3.926,-3.746 -3.986,-6.463c-0.059,-2.717 1.355,-5.254 3.698,-6.632l30.531,-17.947l6.111,-34.884Z" style="fill:#fd7c26;"/><path d="M270.868,7.319c-0.469,-2.677 -2.35,-4.891 -4.916,-5.787c-2.566,-0.897 -5.416,-0.335 -7.45,1.468l-26.503,23.49l-35.065,-4.967c-2.691,-0.382 -5.378,0.722 -7.023,2.886c-1.646,2.163 -1.992,5.047 -0.906,7.539l14.151,32.465l-15.561,31.813c-1.194,2.442 -0.974,5.339 0.575,7.572c1.549,2.233 4.185,3.454 6.89,3.191l35.249,-3.426l25.448,24.63c1.953,1.89 4.776,2.576 7.379,1.793c2.603,-0.783 4.578,-2.913 5.164,-5.567l7.634,-34.582l31.288,-16.592c2.402,-1.273 3.926,-3.746 3.986,-6.463c0.059,-2.717 -1.355,-5.254 -3.698,-6.632l-30.531,-17.947l-6.111,-34.884Z" style="fill:#fd7c26;"/><path d="M84.283,163.899c-0.329,-4.034 1.044,-8.022 3.787,-10.998c2.744,-2.976 6.607,-4.669 10.654,-4.669c31.597,-0.046 104.915,-0.046 135.935,-0.046c3.944,0 7.718,1.602 10.457,4.439c2.739,2.837 4.208,6.664 4.07,10.605c-1.278,28.115 -12.156,85.822 -80.728,85.822c-68.031,-0 -81.627,-56.8 -84.175,-85.153Z" style="fill:#463434;"/><clipPath id="_clip1"><path d="M84.283,163.899c-0.329,-4.034 1.044,-8.022 3.787,-10.998c2.744,-2.976 6.607,-4.669 10.654,-4.669c31.597,-0.046 104.915,-0.046 135.935,-0.046c3.944,0 7.718,1.602 10.457,4.439c2.739,2.837 4.208,6.664 4.07,10.605c-1.278,28.115 -12.156,85.822 -80.728,85.822c-68.031,-0 -81.627,-56.8 -84.175,-85.153Z"/></clipPath><g clip-path="url(#_clip1)"><ellipse cx="166.5" cy="234.525" rx="50.976" ry="28.578" style="fill:#fd7c26;"/><path d="M240.484,148.192l-147.968,0l-0,6.573c-0,5.99 2.379,11.735 6.615,15.971c4.236,4.236 9.981,6.616 15.972,6.616c27.858,-0 74.936,-0 102.794,-0c5.991,-0 11.736,-2.38 15.972,-6.616c4.236,-4.236 6.615,-9.981 6.615,-15.971c0,-3.817 0,-6.573 0,-6.573Z" style="fill:#ebebeb;"/></g></svg>